<svg width="40" height="54" viewBox="0 0 40 54" fill="none" xmlns="http://www.w3.org/2000/svg">
<path d="M39.1976 47.0281C38.958 47.0281 38.762 47.2242 38.762 47.4638V53.1265H33.2472V44.9112C33.2472 44.6716 33.0512 44.4755 32.8116 44.4755C32.572 44.4755 32.376 44.6716 32.376 44.9112V53.1265H20.3513C20.6692 51.885 21.767 49.4544 25.5677 48.4176C30.3202 47.1217 31.1937 43.4299 31.3526 42.1448H31.4157C33.4086 42.1448 35.0182 41.609 36.2401 40.9687C37.181 42.1862 38.1371 43.7501 38.784 45.6341C38.845 45.8127 39.0127 45.9281 39.1957 45.9281C39.2196 45.9281 39.2436 45.9259 39.2676 45.9216C39.4766 45.8867 39.6313 45.7059 39.6313 45.4925L39.6335 41.1516C39.6335 40.202 39.444 39.2741 39.0715 38.3942C39.0715 38.392 39.0694 38.392 39.0694 38.3899C38.9648 38.0849 38.8385 37.7866 38.6882 37.5012L31.5768 11.4734C31.5768 11.4734 31.5747 11.4712 31.5747 11.469C30.5858 5.37693 26.0686 2.20598 23.2918 0.80534C21.1617 -0.268446 18.4718 -0.268446 16.3416 0.80534C13.5667 2.20581 9.04734 5.37922 8.05876 11.469C8.05876 11.4712 8.05658 11.4712 8.05658 11.4734L0.947442 37.5012C0.794978 37.7931 0.666472 38.0893 0.564106 38.392C0.564106 38.3942 0.561928 38.3942 0.561928 38.3964C0.189482 39.2763 0 40.2042 0 41.1538V53.5644C0 53.804 0.196023 54 0.435609 54H39.1963C39.4359 54 39.6319 53.804 39.6319 53.5644V47.4656C39.6319 47.226 39.4359 47.03 39.1963 47.03L39.1976 47.0281ZM30.9711 41.265C30.8535 41.2606 30.7359 41.3042 30.6509 41.3848C30.566 41.4676 30.5159 41.5808 30.5159 41.6984C30.5159 41.8814 30.444 46.183 25.3365 47.5748C21.9061 48.5092 20.4403 50.5064 19.8152 51.9875C19.1901 50.5065 17.7242 48.5092 14.2938 47.5748C9.18854 46.183 9.11661 41.8813 9.11443 41.6984C9.11443 41.5786 9.06652 41.4654 8.97939 41.3826C8.89445 41.2998 8.78119 41.2585 8.65922 41.2606C6.73167 41.3412 5.15695 40.8599 3.96334 40.2631C5.28977 38.7145 6.4463 37.889 6.4681 37.8737C6.47246 37.8694 6.47464 37.865 6.48117 37.8607C6.51166 37.8367 6.5378 37.8084 6.56176 37.7757C6.57047 37.7648 6.58354 37.754 6.59007 37.7409C6.61185 37.7039 6.6271 37.6603 6.63799 37.6167C6.64017 37.608 6.6467 37.5993 6.6467 37.5906V37.5884L9.01641 23.4683C9.097 22.8214 9.1863 22.1919 9.28213 21.5712C10.075 22.9957 11.1204 23.917 12.2291 24.7403C13.1286 27.3474 12.8694 29.3098 11.458 30.5731C11.1422 30.6646 10.0989 30.9848 8.75505 31.5424C8.53289 31.6338 8.42834 31.8887 8.51982 32.1108C8.6113 32.333 8.86613 32.4397 9.08827 32.346C10.6194 31.7101 11.7781 31.3855 11.7891 31.3833C11.8501 31.3659 11.9067 31.3354 11.9568 31.294C13.5446 29.9328 13.9976 27.8505 13.2919 25.2393C13.3812 25.3242 13.4705 25.4113 13.5642 25.4919L17.0534 28.4846C17.8201 29.1423 18.8002 29.5039 19.8108 29.5039C20.8214 29.5039 21.8015 29.1423 22.5682 28.4846L26.0574 25.4919C26.151 25.4113 26.2382 25.3242 26.3296 25.2393C25.624 27.8508 26.077 29.9308 27.6648 31.294C27.7127 31.3354 27.7693 31.3659 27.8325 31.3833C27.876 31.3942 29.9299 31.9801 32.2256 33.1214L32.9749 37.5886V37.5908C32.977 37.5995 32.9814 37.6082 32.9836 37.6169C32.9945 37.6604 33.0097 37.704 33.0315 37.741C33.0402 37.7541 33.0511 37.7628 33.0598 37.7759C33.0838 37.8086 33.1099 37.8369 33.1404 37.8608C33.1448 37.8652 33.1469 37.8695 33.1535 37.8739C33.1752 37.8891 34.334 38.7168 35.6626 40.2676C34.469 40.8622 32.8965 41.3435 30.9623 41.2607L30.9711 41.265ZM0.872973 41.1518C0.872973 40.5441 0.962275 39.9495 1.13652 39.3723C1.47194 39.6903 1.96636 40.1106 2.62197 40.5288C2.01432 41.3282 1.40661 42.2691 0.873006 43.3429L0.872973 41.1518ZM1.56125 38.5621L1.75727 37.8477C2.73521 36.0269 4.70196 34.6024 6.4357 33.6354L5.82364 37.277C5.44031 37.5645 4.36652 38.4205 3.18166 39.8318C2.39977 39.3461 1.85524 38.8583 1.56123 38.5642L1.56125 38.5621ZM15.8124 4.90715C15.8124 4.33218 16.2807 3.86169 16.8579 3.86169C17.1149 3.86169 17.3654 3.9597 17.5592 4.14048C17.6834 4.25374 17.8641 4.28641 18.0188 4.22107C18.1756 4.15572 18.2801 4.00762 18.2867 3.83773C18.3259 2.97739 18.9662 2.28041 19.8157 2.16282C20.6651 2.28043 21.3055 2.97739 21.3447 3.83773C21.3534 4.00762 21.4579 4.15572 21.6126 4.22107C21.7694 4.28641 21.948 4.25374 22.0721 4.14048C22.2681 3.96188 22.5164 3.86387 22.7734 3.86387C23.3484 3.86387 23.8189 4.33215 23.8167 4.90281C23.8146 4.9137 23.8102 4.9638 23.808 4.97686C23.7993 5.12279 23.8646 5.26436 23.9823 5.35149C24.0999 5.43861 24.2545 5.46257 24.3917 5.41247C24.5159 5.36674 24.6313 5.34496 24.7468 5.34496C25.3217 5.34496 25.7922 5.81323 25.7922 6.39042C25.7922 6.61911 25.7182 6.83256 25.581 7.01335C23.9082 6.64308 21.9218 6.44924 19.8134 6.44924C17.7049 6.44924 15.7186 6.64309 14.0458 7.01335C13.9085 6.83475 13.8345 6.61912 13.8345 6.39042C13.8345 5.81544 14.3028 5.34496 14.8799 5.34496C14.9932 5.34496 15.1086 5.36674 15.235 5.41247C15.3722 5.46257 15.5268 5.43861 15.6444 5.35149C15.7621 5.26436 15.8274 5.12279 15.8187 4.97686C15.8187 4.96597 15.8121 4.92023 15.81 4.90934L15.8124 4.90715ZM30.6167 23.4924L32.0542 32.0585C30.192 31.1873 28.5933 30.6994 28.1708 30.5774C26.7594 29.3142 26.5002 27.3517 27.3997 24.7446C28.5084 23.9213 29.5538 23.0022 30.3467 21.5777C30.4425 22.2028 30.534 22.8388 30.6146 23.4944L30.6167 23.4924ZM11.7003 20.7764L11.6458 20.5302C11.4302 19.5566 11.4629 18.5547 11.7438 17.6291C13.5865 11.5286 18.844 8.44855 19.8438 7.91049C20.752 8.29601 25.1843 10.498 27.7263 17.531C28.1053 18.5764 28.1771 19.7003 27.9376 20.7784C27.5891 22.351 26.7222 23.7928 25.5003 24.8405L22.0111 27.8331C21.4012 28.3559 20.6237 28.6433 19.82 28.6433C19.0163 28.6433 18.2387 28.3558 17.6289 27.8331L14.1396 24.8405C12.9178 23.7929 12.0509 22.351 11.7024 20.7784L11.7003 20.7764ZM27.9308 23.1961C28.3185 22.497 28.6126 21.7455 28.7868 20.9636C29.0634 19.7243 28.9785 18.4327 28.5451 17.2305C26.171 10.6616 22.2745 8.12634 20.6737 7.32677C22.4837 7.37686 24.2196 7.57942 25.6309 7.9105C25.6505 7.91485 25.6702 7.91485 25.6876 7.91703C27.6936 10.9031 29.1703 14.9738 30.0937 20.0661C29.5601 21.4644 28.8022 22.4119 27.9288 23.1938L27.9308 23.1961ZM13.9456 7.91958C13.9652 7.91741 13.9848 7.91741 14.0044 7.91305C15.4507 7.57327 17.2323 7.36854 19.0902 7.32497C17.4741 8.24843 12.7126 11.3979 10.9072 17.3742C10.5848 18.4415 10.5456 19.598 10.7939 20.7175L10.8483 20.9636C11.0226 21.7455 11.3166 22.497 11.7043 23.1961C10.831 22.4121 10.073 21.4667 9.53937 20.0684C10.4607 14.9849 11.9374 10.9097 13.9455 7.92159L13.9456 7.91958ZM37.8758 37.8371L38.074 38.5624C37.7822 38.8564 37.2377 39.3464 36.4558 39.8321C35.2753 38.4251 34.1993 37.5626 33.8116 37.273L33.2017 33.6356C35.0727 34.6789 36.9349 36.0815 37.8758 37.8371ZM38.7623 43.3323C38.2265 42.2585 37.6188 41.3263 37.0111 40.5292C37.6689 40.111 38.1633 39.6906 38.4988 39.3726C38.673 39.9498 38.7623 40.5466 38.7623 41.1521L38.7623 43.3323ZM33.0164 32.5359L31.4787 23.3687C31.3393 22.2492 31.176 21.1754 30.993 20.1365C31.4199 18.9211 31.6965 17.4096 31.7662 15.4668L37.2527 35.5524C36.0526 34.3109 34.504 33.3091 33.0185 32.5358L33.0164 32.5359ZM16.7357 1.5813C18.624 0.629515 21.0133 0.629515 22.8997 1.5813C26.4151 3.35641 30.6556 6.84346 30.8909 13.3908C30.9606 15.3489 30.8561 16.9149 30.6143 18.1956C29.6559 13.7502 28.2359 10.128 26.3758 7.37968C26.5588 7.08129 26.6698 6.74153 26.6698 6.38869C26.6698 5.29751 25.7464 4.40884 24.6465 4.47637C24.4504 3.62695 23.6881 2.99309 22.7798 2.99309C22.5446 2.99309 22.3137 3.03665 22.0981 3.11942C21.791 2.14148 20.935 1.41183 19.8678 1.29206C19.8351 1.28771 19.8024 1.28771 19.7698 1.29206C18.7025 1.41185 17.8466 2.14148 17.5394 3.11942C17.3238 3.03665 17.0929 2.99309 16.8577 2.99309C15.9495 2.99309 15.1871 3.62689 14.9911 4.47637C13.8933 4.40449 12.9677 5.29751 12.9677 6.38869C12.9677 6.74154 13.0766 7.08132 13.2595 7.37968C11.3995 10.1284 9.97942 13.755 9.02105 18.1956C8.77929 16.9149 8.67474 15.3489 8.74444 13.393C8.97749 6.84591 13.2181 3.35658 16.7334 1.58348L16.7357 1.5813ZM7.87126 15.4639C7.93878 17.4046 8.21757 18.9183 8.64446 20.1336C8.4615 21.1682 8.29815 22.2376 8.16093 23.3484L6.61454 32.5613C6.59276 32.5678 6.5688 32.57 6.54702 32.5809C4.79806 33.4978 3.40846 34.4911 2.38257 35.5517L7.87126 15.4639ZM0.873085 45.5754C1.51999 43.7176 2.46308 42.1733 3.39306 40.9689C4.61494 41.6092 6.22451 42.145 8.21741 42.145H8.28057C8.43957 43.4301 9.31298 47.1197 14.0655 48.4178C17.8661 49.4546 18.9661 51.8853 19.2819 53.1267H7.25713V44.9113C7.25713 44.6718 7.06111 44.4757 6.82152 44.4757C6.58194 44.4757 6.38591 44.6718 6.38591 44.9113V53.1267H0.871121V45.5754H0.873085Z" fill="white"/>
<path d="M19.8367 35.8743C23.4175 35.8743 25.4973 32.8425 25.5826 32.714C25.7176 32.5136 25.6632 32.2435 25.465 32.1107C25.2668 31.9756 24.9945 32.0301 24.8595 32.2283C24.8399 32.2566 22.945 35.0053 19.8348 35.0053C16.7267 35.0053 14.7882 32.2544 14.7708 32.2261C14.6336 32.0279 14.3635 31.9778 14.1654 32.115C13.9671 32.2501 13.9171 32.5223 14.0521 32.7205C14.1414 32.849 16.2563 35.8787 19.8348 35.8787L19.8367 35.8743Z" fill="white"/>
<path d="M28.7452 35.092C28.5339 34.9788 28.2682 35.0572 28.1549 35.2706C28.1244 35.3273 24.988 41.0511 19.8498 41.0511C14.7096 41.0511 11.5123 35.3247 11.4794 35.2684C11.364 35.0571 11.0983 34.9809 10.8892 35.0963C10.6779 35.2118 10.5995 35.4753 10.7149 35.6866C10.8543 35.9414 14.1867 41.9226 19.8497 41.9226C25.5127 41.9226 28.7861 35.9375 28.9232 35.6827C29.0365 35.4714 28.9581 35.2079 28.7446 35.0924L28.7452 35.092Z" fill="white"/>
<path d="M19.8173 24.3759C21.5423 24.3759 22.958 23.0822 23.1127 21.3659C23.1235 21.2439 23.0822 21.1241 22.9994 21.0327C22.9166 20.9412 22.799 20.8911 22.6771 20.8911H16.9529C16.831 20.8911 16.7134 20.9434 16.6306 21.0327C16.5478 21.122 16.5064 21.2439 16.5173 21.3659C16.672 23.0822 18.0899 24.3759 19.8127 24.3759H19.8173ZM22.1565 21.7623C21.8581 22.7838 20.9237 23.5047 19.8173 23.5047C18.7108 23.5047 17.7786 22.7838 17.478 21.7623H22.1565Z" fill="white"/>
</svg>
