<svg width="48" height="54" viewBox="0 0 48 54" fill="none" xmlns="http://www.w3.org/2000/svg">
<path fill-rule="evenodd" clip-rule="evenodd" d="M20.5345 10.9301C20.1883 13.4697 18.3094 14.1583 17.0593 14.3311C16.4579 14.4145 16.0033 14.9099 16.0033 15.4835L16.0034 21.5247C16.0034 25.7163 19.9143 27.6254 23.5478 27.6254C27.1825 27.6254 31.0935 25.7163 31.0935 21.5248L31.0936 14.9593C31.0936 14.6342 30.8295 14.3699 30.5041 14.3699L27.0634 14.3698C23.9248 14.3698 21.9625 12.8118 20.5345 10.9301ZM23.5479 28.8044C21.2934 28.8044 19.1837 28.1699 17.6082 27.0182C15.7873 25.6869 14.8245 23.7874 14.8245 21.5248L14.8247 15.4834C14.8247 14.3244 15.716 13.327 16.8985 13.1634C18.8828 12.8887 19.6797 11.5341 19.3359 9.02195C19.2981 8.74432 19.46 8.47836 19.7252 8.38563C19.9894 8.29304 20.2827 8.39952 20.4263 8.64007C22.353 11.8725 24.276 13.1911 27.0634 13.1911H30.5043C31.4791 13.1911 32.2723 13.9842 32.2723 14.9593L32.2726 21.5247C32.2726 23.7874 31.3096 25.6869 29.4886 27.0182C27.9133 28.1698 25.8035 28.8044 23.5479 28.8044Z" fill="white"/>
<path fill-rule="evenodd" clip-rule="evenodd" d="M19.9206 9.53136C19.7192 9.53136 19.5239 9.42882 19.4133 9.24385C18.8768 8.34319 17.1699 5.2329 17.7605 3.02162C17.844 2.70693 18.167 2.51987 18.4813 2.60386C18.7959 2.68775 18.9836 3.0108 18.8989 3.32529C18.5246 4.72979 19.487 7.06613 20.4264 8.64021C20.5923 8.91968 20.5013 9.28158 20.2213 9.44831C20.127 9.50456 20.0224 9.53143 19.9206 9.53136Z" fill="white"/>
<path fill-rule="evenodd" clip-rule="evenodd" d="M34.5232 17.5581C34.3132 17.5581 34.1093 17.4449 34.0037 17.246C33.8504 16.9587 33.9583 16.6017 34.2456 16.4486C34.5207 16.3021 34.6914 16.0202 34.6914 15.7126L34.6914 12.5723C34.1659 8.16016 31.9776 4.3984 28.8353 2.50503C26.2702 0.959522 23.3083 0.765364 20.2691 1.94309C19.5177 2.22646 19.0719 2.67802 18.8988 3.32528C18.8511 3.50346 18.7232 3.64934 18.5525 3.7192C14.1111 5.53335 12.8794 8.57034 12.4054 12.5722L12.4055 15.7125C12.4055 16.02 12.5761 16.3021 12.8512 16.4485C13.1385 16.6016 13.2465 16.9587 13.093 17.2459C12.941 17.5332 12.5834 17.6419 12.2961 17.4886C11.6369 17.1367 11.2266 16.4563 11.2266 15.7126L11.2266 12.5375C11.2266 12.5147 11.2278 12.4918 11.2303 12.4691C11.6726 8.69586 12.7873 4.91178 17.8501 2.73525C18.1719 1.8576 18.8423 1.22156 19.848 0.84215C23.2349 -0.470664 26.5538 -0.245318 29.4432 1.49529C32.905 3.58028 35.3053 7.68267 35.8665 12.4691C35.869 12.4917 35.8702 12.5147 35.8702 12.5376L35.8704 15.7125C35.8704 16.4562 35.4601 17.1369 34.8007 17.4888C34.7125 17.5357 34.6177 17.5582 34.5232 17.5581Z" fill="white"/>
<path fill-rule="evenodd" clip-rule="evenodd" d="M15.0444 21.6898C13.6801 21.6899 12.586 21.0669 12.0051 19.9416C11.3877 18.7453 11.5189 17.2505 12.3256 16.3069C13.0761 15.4294 14.2682 15.1792 15.5993 15.6204C15.9075 15.7228 16.0758 16.0564 15.9726 16.3653C15.8708 16.6744 15.5367 16.8419 15.2285 16.7394C14.3506 16.4485 13.6567 16.5638 13.222 17.0727C12.7261 17.6524 12.6547 18.6315 13.0525 19.4008C13.2922 19.8659 13.9109 20.6257 15.3611 20.4967C15.6843 20.467 15.9714 20.7068 16.0008 21.0311C16.0291 21.3552 15.7909 21.6417 15.4667 21.6708C15.3232 21.6836 15.183 21.6899 15.0444 21.6898Z" fill="white"/>
<path fill-rule="evenodd" clip-rule="evenodd" d="M32.0524 21.6898C31.9138 21.6898 31.7736 21.6837 31.6299 21.6708C31.3059 21.6416 31.0675 21.3554 31.0958 21.0312C31.1255 20.7068 31.4126 20.4672 31.7355 20.4968C33.1872 20.6263 33.8046 19.866 34.0441 19.4009C34.441 18.6315 34.3695 17.6525 33.8746 17.0727C33.4399 16.5639 32.7461 16.4487 31.8682 16.7394C31.5601 16.8415 31.2259 16.6744 31.124 16.3653C31.0211 16.0563 31.1891 15.7229 31.4973 15.6204C32.8272 15.1794 34.0207 15.4297 34.771 16.3069C35.5779 17.2504 35.7091 18.7454 35.0915 19.9416C34.5108 21.0667 33.4166 21.6899 32.0524 21.6898Z" fill="white"/>
<path fill-rule="evenodd" clip-rule="evenodd" d="M45.0616 54H2.03559C1.42137 54 0.84916 53.7386 0.464776 53.2842C0.0830381 52.8335 -0.0705693 52.2552 0.0300952 51.6572L1.70763 41.6774C1.95821 40.1878 3.10241 38.9673 4.8498 38.329L15.2311 34.5349C15.5366 34.4234 15.8755 34.5804 15.9873 34.8863C16.0992 35.192 15.9418 35.5305 15.636 35.6422L5.25378 39.4362C3.91654 39.9247 3.04836 40.813 2.8691 41.8729L1.19177 51.8524C1.15007 52.1029 1.21137 52.3412 1.36487 52.5229C1.52471 52.712 1.76889 52.8213 2.03534 52.8213L45.0617 52.8212C45.3281 52.8212 45.5723 52.712 45.732 52.5229C45.8856 52.341 45.9468 52.103 45.9051 51.8524L44.2279 41.8731C44.0486 40.8129 43.1803 39.9248 41.8431 39.4362L31.4609 35.6421C31.1551 35.5303 30.9978 35.192 31.1096 34.8862C31.2214 34.5803 31.5602 34.4232 31.866 34.5349L42.2472 38.329C43.9944 38.9671 45.1388 40.1877 45.3893 41.6776L47.0668 51.6571C47.1676 52.2551 47.0139 52.8336 46.632 53.2842C46.2478 53.7385 45.6754 54.0001 45.0616 54Z" fill="white"/>
<path fill-rule="evenodd" clip-rule="evenodd" d="M18.3783 31.8068C18.0529 31.8068 17.7887 31.5429 17.7887 31.2174L17.7887 26.8292C17.7887 26.5038 18.0527 26.2398 18.3781 26.2398C18.7035 26.2397 18.9675 26.5038 18.9675 26.8293L18.9676 31.2173C18.9676 31.5428 18.7035 31.8069 18.3783 31.8068ZM28.7187 31.8068C28.3935 31.8068 28.1293 31.5429 28.1293 31.2174L28.1294 26.8292C28.1294 26.5038 28.3933 26.2398 28.7186 26.2398C29.0441 26.2397 29.3081 26.5038 29.3081 26.8293L29.3083 31.2173C29.3083 31.5428 29.0441 31.8069 28.7187 31.8068Z" fill="white"/>
<path fill-rule="evenodd" clip-rule="evenodd" d="M23.548 32.4115C22.7399 32.4115 22.0816 33.0693 22.0816 33.8779C22.0817 34.6864 22.7399 35.3443 23.5478 35.3443C24.3572 35.3442 25.0152 34.6865 25.0152 33.8779C25.0153 33.0693 24.357 32.4115 23.548 32.4115ZM23.548 36.5231C22.0892 36.5231 20.9028 35.3366 20.9028 33.8779C20.9031 32.4192 22.089 31.2327 23.5478 31.2327C25.0068 31.2326 26.194 32.4192 26.194 33.8779C26.1943 35.3365 25.0066 36.5233 23.548 36.5231Z" fill="white"/>
<path fill-rule="evenodd" clip-rule="evenodd" d="M16.8803 37.5212C16.4711 37.5212 16.0623 37.3829 15.7049 37.1171C15.166 36.7149 14.8441 36.0959 14.8441 35.4611L14.8444 32.2944C14.8444 31.6595 15.1658 31.0405 15.7049 30.6385C16.2123 30.2608 16.8248 30.1405 17.3897 30.3085L22.3445 31.7821C22.6564 31.8749 22.8332 32.2032 22.7411 32.5152C22.6478 32.8273 22.3199 33.0053 22.008 32.9121L17.0533 31.4382C16.8494 31.3775 16.6148 31.4305 16.4098 31.5834C16.1717 31.7613 16.023 32.0339 16.023 32.2945L16.023 35.461C16.023 35.7216 16.1715 35.9942 16.4098 36.1722C16.6148 36.3252 16.8494 36.3779 17.0532 36.3173L22.0082 34.8434C22.3199 34.7505 22.6477 34.9284 22.7411 35.2404C22.8332 35.5524 22.6563 35.8805 22.3444 35.9734L17.3898 37.447C17.2229 37.4968 17.052 37.5214 16.8803 37.5212Z" fill="white"/>
<path fill-rule="evenodd" clip-rule="evenodd" d="M30.2171 37.5213C30.045 37.5213 29.8743 37.4969 29.7073 37.4472L24.7527 35.9733C24.4408 35.8805 24.2626 35.5525 24.3559 35.2404C24.4482 34.9283 24.7771 34.7506 25.089 34.8436L30.0425 36.3173C30.2478 36.3778 30.4822 36.3251 30.6872 36.1721C30.9255 35.9939 31.074 35.7217 31.074 35.4611L31.0742 32.2944C31.0742 32.0339 30.9254 31.7616 30.6872 31.5834C30.4824 31.4304 30.2463 31.3777 30.0425 31.4383L25.0892 32.9121C24.7759 33.0049 24.448 32.8272 24.3559 32.5153C24.2626 32.2031 24.4406 31.875 24.7525 31.7822L29.7074 30.3085C30.271 30.1405 30.8849 30.2607 31.392 30.6385C31.9312 31.0404 32.2528 31.6596 32.2528 32.2945V35.461C32.2528 36.0959 31.9311 36.715 31.392 37.1171C31.0349 37.3828 30.6246 37.5214 30.2171 37.5213Z" fill="white"/>
<path fill-rule="evenodd" clip-rule="evenodd" d="M23.549 54C23.3098 54 23.0861 53.854 22.9964 53.6182C20.7248 47.5827 19.1652 42.1638 18.0871 36.5638C18.0258 36.2441 18.2357 35.9352 18.5549 35.8736C18.8756 35.8118 19.1836 36.0214 19.245 36.341C20.3099 41.8737 21.8532 47.2317 24.1003 53.2019C24.2146 53.5076 24.061 53.8466 23.7565 53.962C23.6877 53.9878 23.6177 54.0001 23.549 54Z" fill="white"/>
<path fill-rule="evenodd" clip-rule="evenodd" d="M16.4468 54C16.2675 54 16.0917 53.9191 15.9763 53.7656C14.0928 51.2801 11.9559 48.2102 10.4493 43.2168C10.371 42.9582 10.4788 42.6797 10.7096 42.5408L13.6864 40.7566C12.7236 39.5412 11.8774 38.1024 11.2671 36.6392C11.1421 36.3386 11.2843 35.9935 11.5839 35.8683C11.8848 35.7432 12.2298 35.8852 12.3551 36.1856C13.0109 37.7582 13.9575 39.2983 15.0222 40.5222C15.1364 40.6538 15.1867 40.8293 15.1597 41.0014C15.1328 41.1735 15.0308 41.3249 14.881 41.4145L11.7129 43.314C13.1557 47.8642 15.1499 50.724 16.9157 53.0546C17.1121 53.3137 17.0606 53.6833 16.8015 53.8798C16.6946 53.9608 16.5706 54.0001 16.4468 54Z" fill="white"/>
<path fill-rule="evenodd" clip-rule="evenodd" d="M10.2494 54C9.92398 54 9.65979 53.7361 9.65979 53.4107L9.65986 49.6065C9.65986 49.281 9.92377 49.0171 10.2492 49.0171C10.5746 49.017 10.8386 49.2811 10.8386 49.6065L10.8388 53.4106C10.8388 53.736 10.5746 54.0001 10.2494 54Z" fill="white"/>
<path fill-rule="evenodd" clip-rule="evenodd" d="M36.8479 54C36.5225 54 36.2583 53.7361 36.2583 53.4107L36.2583 49.6065C36.2583 49.281 36.5223 49.0171 36.8477 49.0171C37.1731 49.017 37.4371 49.2811 37.4371 49.6065L37.4372 53.4106C37.4372 53.736 37.1731 54.0001 36.8479 54Z" fill="white"/>
<path fill-rule="evenodd" clip-rule="evenodd" d="M24.0453 39.7705H23.0507C22.7252 39.7705 22.4611 39.5068 22.4611 39.1812C22.4611 38.8556 22.7251 38.5918 23.0505 38.5918L24.0453 38.5918C24.3708 38.5918 24.6345 38.8557 24.6345 39.1812C24.6346 39.5067 24.3706 39.7706 24.0453 39.7705Z" fill="white"/>
<path fill-rule="evenodd" clip-rule="evenodd" d="M24.0453 42.7915H23.0507C22.7252 42.7915 22.4611 42.5275 22.4611 42.2019C22.4611 41.8765 22.7251 41.6125 23.0505 41.6125L24.0453 41.6124C24.3708 41.6124 24.6345 41.8765 24.6345 42.2019C24.6346 42.5275 24.3706 42.7915 24.0453 42.7915Z" fill="white"/>
<path fill-rule="evenodd" clip-rule="evenodd" d="M24.0453 45.8121H23.0507C22.7252 45.8121 22.4611 45.5482 22.4611 45.2228C22.4611 44.8972 22.7251 44.6333 23.0505 44.6333L24.0453 44.6332C24.3708 44.6332 24.6345 44.8973 24.6345 45.2228C24.6346 45.5481 24.3706 45.8122 24.0453 45.8121Z" fill="white"/>
<path fill-rule="evenodd" clip-rule="evenodd" d="M23.548 54C23.4792 54 23.4091 53.9879 23.3403 53.9621C23.0358 53.8465 22.8823 53.5077 22.9965 53.2019C25.2439 47.2318 26.7872 41.874 27.8518 36.3411C27.9134 36.0213 28.2214 35.8118 28.5419 35.8737C28.8613 35.9351 29.0711 36.2441 29.0098 36.5638C27.9318 42.1638 26.3709 47.583 24.1004 53.6182C24.0108 53.854 23.7873 54.0001 23.548 54Z" fill="white"/>
<path fill-rule="evenodd" clip-rule="evenodd" d="M30.6501 54C30.5263 54 30.402 53.9608 30.2952 53.8798C30.0361 53.6833 29.9845 53.3137 30.181 53.0546C31.947 50.7239 33.941 47.8643 35.3838 43.3141L32.2158 41.4144C32.066 41.3249 31.964 41.1736 31.9369 41.0015C31.91 40.8291 31.9591 40.6538 32.0745 40.5222C33.1391 39.2986 34.0859 37.7586 34.7416 36.1856C34.8671 35.8852 35.2119 35.7433 35.5127 35.8683C35.8125 35.9935 35.9548 36.3387 35.8295 36.6392C35.2193 38.1025 34.372 39.5414 33.4105 40.7566L36.3872 42.5407C36.6181 42.6797 36.7259 42.9582 36.6474 43.2167C35.1409 48.2101 33.0041 51.2802 31.1204 53.7656C31.0051 53.919 30.8293 54.0001 30.6501 54Z" fill="white"/>
</svg>
